<svg width="70" height="90" viewBox="0 0 70 90" fill="none" xmlns="http://www.w3.org/2000/svg">
<path fill-rule="evenodd" clip-rule="evenodd" d="M26.606 14.177H55.157V31.451H26.606V14.177ZM25.206 34.263H56.558C56.743 34.2633 56.9262 34.2271 57.0972 34.1565C57.2682 34.0859 57.4236 33.9823 57.5546 33.8517C57.6855 33.721 57.7894 33.5658 57.8603 33.395C57.9313 33.2241 57.9679 33.041 57.968 32.856V12.771C57.9679 12.5861 57.9313 12.403 57.8603 12.2322C57.7894 12.0614 57.6854 11.9063 57.5545 11.7757C57.4235 11.6451 57.2681 11.5416 57.0971 11.4711C56.9261 11.4007 56.7429 11.3646 56.558 11.365H25.206C25.0211 11.3647 24.838 11.4009 24.667 11.4714C24.4961 11.5419 24.3407 11.6454 24.2098 11.776C24.0789 11.9065 23.9749 12.0616 23.9039 12.2323C23.8329 12.4031 23.7963 12.5861 23.796 12.771V32.856C23.7961 33.041 23.8327 33.2241 23.9037 33.395C23.9746 33.5658 24.0785 33.721 24.2095 33.8517C24.3404 33.9823 24.4958 34.0859 24.6668 34.1565C24.8378 34.2271 25.021 34.2633 25.206 34.263ZM8.032 76.763H66.606V85.078C66.6052 85.6382 66.382 86.1752 65.9854 86.5709C65.5887 86.9666 65.0512 87.1885 64.491 87.188H8.028C7.33741 87.1976 6.6518 87.0698 6.01101 86.8121C5.37021 86.5545 4.78701 86.1721 4.29527 85.6871C3.80353 85.2021 3.41306 84.6243 3.14655 83.9871C2.88004 83.3499 2.7428 82.6662 2.7428 81.9755C2.7428 81.2848 2.88004 80.6011 3.14655 79.9639C3.41306 79.3267 3.80353 78.7489 4.29527 78.2639C4.78701 77.7789 5.37021 77.3965 6.01101 77.1389C6.6518 76.8812 7.33741 76.7534 8.028 76.763H8.032ZM2.811 8.024C2.81312 6.64148 3.3636 5.31626 4.34167 4.33913C5.31973 3.36201 6.64548 2.81279 8.028 2.812H12.356V73.95H8.028C6.11457 73.9491 4.26399 74.633 2.811 75.878V8.024ZM66.601 4.924C66.6002 4.36377 66.377 3.82679 65.9804 3.43112C65.5837 3.03544 65.0462 2.81347 64.486 2.814H15.168V73.95H66.606V4.922L66.601 4.924ZM8.028 90H64.486C65.7917 89.9997 67.0439 89.4812 67.9675 88.5583C68.8911 87.6354 69.4107 86.3837 69.412 85.078V4.922C69.4107 3.61632 68.8911 2.36455 67.9675 1.44167C67.0439 0.518788 65.7917 0.000264333 64.486 0H8.028C5.90002 0.00158758 3.8596 0.847353 2.35451 2.35169C0.849431 3.85602 0.00264812 5.89602 0 8.024V81.975C0.00238345 84.1031 0.84905 86.1434 2.35416 87.648C3.85927 89.1525 5.89985 89.9984 8.028 90Z" fill="black"/>
</svg>
