<svg width="2128" height="994" viewBox="0 0 2128 994" fill="none" xmlns="http://www.w3.org/2000/svg">
<path d="M853.597 109.487C930.871 107.982 1006.63 131.042 1069.96 175.347C1089 188.889 1104.23 204.474 1122.58 218.631C1130.59 224.816 1137.7 230.198 1145.26 236.979C1155.82 229.198 1165.66 220.449 1176.9 212.348C1212.22 186.611 1251.5 166.808 1293.2 153.717C1372.46 129.504 1460.56 134.155 1534.2 173.428C1607.7 212.625 1665.97 291.872 1668.4 376.737C1668.61 383.839 1664.77 405.79 1666.23 410.57C1671.57 413.786 1678.3 409.902 1684.25 408.085C1691.73 405.736 1699.44 404.157 1707.25 403.373C1727.15 401.573 1747.22 403.898 1766.18 410.202C1799.14 420.879 1829.4 444.568 1844.39 475.918C1864.97 518.951 1863.3 553.423 1849.02 596.888C1912.9 605.14 1977.14 639.223 1979.81 711.054C1979.84 744.753 1957.37 783.318 1935.34 807.012C1892.77 852.8 1840.33 852.351 1782.95 854.421C1744.71 855.818 1706.46 856.619 1668.2 856.824C1579.71 856.961 1491.23 857.784 1402.75 859.292L722.508 867.491L546.249 869.265C469.382 869.986 396.021 870.822 319.517 857.871C284.938 852.017 253.814 836.83 226.663 814.449C188.113 782.672 174.29 733.318 170.371 685.106C165.506 625.269 192.92 555.75 232.922 510.865C290.992 445.706 363.077 434.623 444.132 429.495C452.748 365.789 499.978 270.588 544.092 222.999C613.532 148.088 754.905 112.42 853.597 109.487Z" fill="#193144"/>
<path d="M838.026 130.391C936.45 122.716 1034.48 160.548 1107.3 226.132C1113.93 232.108 1135.52 253.781 1142.84 257.789C1146.54 259.814 1169.2 240.776 1174.21 236.982C1186 228.119 1198.22 219.85 1210.83 212.204C1286.17 166.662 1375.55 145.073 1462.05 166.725C1562.98 191.989 1634.41 265.166 1648.44 369.202C1650.39 383.651 1651.07 421.156 1655.52 428.518C1661.33 433.494 1687.31 425.334 1695.88 423.827C1702.53 422.673 1709.25 421.961 1716 421.697C1748.49 420.231 1780.21 431.879 1804.03 454.025C1837.33 485.223 1849.77 533.337 1839.35 577.85C1837.26 586.93 1830.2 595.355 1829.28 604.47C1829.01 607.18 1832.63 610.765 1835.3 611.108C1855.32 613.683 1871.12 617.584 1890 623.954C1948.76 643.777 1987.37 709.464 1942.55 762.571C1923.11 785.399 1894.26 780.834 1866.6 781.439L1779.32 783.112L1490.25 786.454L748.374 795.17C669.972 796.38 591.736 796.012 513.319 796.567C462.624 796.926 413.55 803.579 363.622 799.149C342.781 797.585 313.626 791.783 297.637 776.791C230.402 713.748 256.663 594.592 310.318 532.337C360.865 473.688 422.763 458.129 495.97 454.155C499.636 453.956 511.289 453.449 513.567 449.754C520.544 433.466 523.769 413.633 527.817 396.238C562.465 247.354 687.681 143.375 838.026 130.391Z" fill="#FEFEFE"/>
<path d="M893.049 812.019L914.027 812.035C909.423 816.049 904.751 819.984 900.013 823.839C894.639 828.211 864.489 853.92 859.008 853.355C852.095 853.708 843.629 854.219 836.867 853.424C854.1 842.036 877.634 820.934 893.049 812.019Z" fill="#BFE1F1"/>
<path d="M1211.04 808.436C1218.1 808.413 1225.16 808.318 1232.22 808.152C1214.57 822.315 1203.93 833.266 1188.24 849.56C1180.96 849.512 1173.19 849.787 1165.87 849.916C1180.21 835.331 1195.28 821.487 1211.04 808.436Z" fill="#BFE1F1"/>
<path d="M1642.39 803.173L1663.62 803.06C1643.25 815.969 1623.33 829.591 1603.92 843.902L1581.04 844.29C1601.15 831.482 1621.23 816.647 1642.39 803.173Z" fill="#BFE1F1"/>
<path d="M1682.47 802.931C1688.76 802.636 1697 802.849 1703.45 802.82C1692.35 810.465 1676.05 818.98 1664.26 826.167C1653.93 832.46 1646.18 834.43 1636.48 843.142C1629.39 843.227 1622.3 843.352 1615.21 843.516C1635.33 830.067 1661.09 816.389 1682.47 802.931Z" fill="#BFE1F1"/>
<path d="M559.341 816.458C565.795 816.639 571.999 816.23 578.438 815.888C569.662 820.92 515.493 854.942 509.76 856.525L490.809 856.518C510.542 842.965 538.068 828.16 559.341 816.458Z" fill="#BFE1F1"/>
<path d="M1844.34 800.22C1846.73 800.169 1849.37 800.335 1851.77 800.432C1852.14 799.698 1804.43 838.472 1801.26 840.682L1780.25 841.527L1775.89 841.492C1778.79 833.341 1833.48 806.081 1844.34 800.22Z" fill="#BFE1F1"/>
<path d="M938.249 811.767L938.721 811.899C938.616 813.616 938.441 813.167 936.879 814.266C920.475 825.805 906.251 838.787 892.291 853.138C884.43 853.09 878.21 853.102 870.398 853.752C869.595 853.114 869.955 853.429 869.547 852.209C888.048 837.578 906.198 824.958 925.797 811.841L938.249 811.767Z" fill="#BFE1F1"/>
<path d="M1771.22 801.852C1778.98 801.918 1786.75 801.727 1794.5 801.278C1770.42 815.545 1758.04 824.018 1736.47 841.833L1712.64 842.037C1723.47 834.436 1734.72 827.451 1746.34 821.116C1753.64 817.106 1761.7 812.853 1768.89 808.585C1771.37 807.117 1770.94 804.827 1771.22 801.852Z" fill="#BFE1F1"/>
<path d="M1746.06 802.025L1762.15 802.009C1760.27 803.373 1747.27 812.049 1745.47 812.942C1736.9 817.211 1710.67 841.178 1704.25 841.883L1684.36 842.205C1698.9 829.988 1728.74 814.915 1746.06 802.025Z" fill="#BFE1F1"/>
<path d="M262.697 566.198L262.969 566.426C263.521 568.949 260.908 572.94 259.544 575.752C239.485 584.231 218.411 594.085 198.429 603.014L197.262 602.089C197.564 598.087 200.04 593.118 201.668 589.301C216.772 580.409 245.054 572.033 262.697 566.198Z" fill="#BFE1F1"/>
<path d="M1500.57 805.009L1517.78 804.701C1505.84 812.008 1494.33 822.821 1484.13 832.326C1480.4 835.801 1473.5 844.906 1469.25 845.998L1450.1 845.946C1466.16 833.879 1484.6 817.882 1500.57 805.009Z" fill="#BFE1F1"/>
<path d="M1904.14 797.308C1907.63 797.102 1908.92 797.094 1912.39 797.481C1911.45 798.852 1892.26 812.666 1889.32 815.188C1874.41 827.961 1867.43 832.53 1847.95 836.348C1845.73 836.764 1844.27 836.763 1842.07 836.826L1841.68 835.814C1847.91 826.143 1892.85 803.063 1904.14 797.308Z" fill="#BFE1F1"/>
<path d="M1405.69 806.101L1420.23 806.014C1408.33 814.321 1396.72 823.024 1385.4 832.108C1379.31 836.91 1368.56 847.496 1361.25 847.155C1355.97 847.039 1349.69 847.515 1344.35 847.783C1366.22 833.759 1384.9 821.751 1405.69 806.101Z" fill="#BFE1F1"/>
<path d="M1538.73 804.509L1552.93 804.459C1535.16 817.251 1518.06 830.954 1501.7 845.513L1485.6 845.524C1493.19 837.963 1500.78 831.257 1509.59 825.123C1519.15 818.469 1530.64 812.782 1538.73 804.509Z" fill="#BFE1F1"/>
<path d="M1719.03 802.411C1722.83 802.16 1724.46 801.972 1728.2 802.588C1728.46 802.159 1681.81 839.203 1677.72 842.529C1671.81 842.533 1665.58 842.758 1659.64 842.873C1655.87 842.958 1654.44 842.899 1650.71 842.364C1658.92 835.15 1715.08 813.051 1719.03 802.411Z" fill="#BFE1F1"/>
<path d="M825.822 812.895C827.45 812.848 830.145 813.058 831.866 813.132L832.369 813.806L771.079 854.413L763.251 854.659C759.467 854.856 756.904 854.775 753.113 854.572L753.217 853.731C777.657 838.567 800.645 826.668 825.822 812.895Z" fill="#BFE1F1"/>
<path d="M297.947 514.15C298.22 514.387 298.359 515.084 298.509 515.533L289.815 525.948C267.776 533.105 245.937 540.866 224.323 549.221L223.845 548.694C223.757 546.024 227.371 541.766 229.186 539.084C251.626 529.963 275.015 522.001 297.947 514.15Z" fill="#BFE1F1"/>
<path d="M427.677 816.36C431.767 816.41 432.775 816.449 436.727 817.418C436.196 818.549 380.432 850.607 375.089 853.626C374.028 854.226 369.814 854.086 368.234 853.977C364.697 853.796 362.721 853.855 359.363 852.658C364.501 848.037 419.038 820.723 427.677 816.36Z" fill="#BFE1F1"/>
<path d="M1181.85 808.883L1194.52 808.809C1185.82 817.151 1160.11 841.479 1153.77 849.992L1139.56 850.001C1150.95 836.122 1168.19 820.493 1181.85 808.883Z" fill="#BFE1F1"/>
<path d="M656.054 815.294L658.292 814.979L659.031 815.711C655.06 818.818 640.889 825.702 635.387 828.661C619.01 837.468 602.766 848.695 585.659 855.711C583.552 856.575 576.342 856.282 573.751 856.193L571.376 856.227L571.129 855.172C583.621 844.66 638.757 822.976 656.054 815.294Z" fill="#BFE1F1"/>
<path d="M460.011 817.161C463.226 817.082 465.516 817.277 468.701 817.546C466.734 819.646 463.73 821.175 461.196 822.546C443.951 831.875 428.447 843.555 412.712 855.207L399.751 854.951L389.828 854.589C402.963 847.865 450.764 824.534 460.011 817.161Z" fill="#BFE1F1"/>
<path d="M958.142 811.16L971.608 811.206C961.463 817.443 951.846 824.499 942.852 832.304C938.837 835.806 922.978 852.221 920.121 852.954L904.895 852.989C920.795 839.24 941.334 823.912 958.142 811.16Z" fill="#BFE1F1"/>
<path d="M629.349 814.839L630.612 815.613C629.047 817.718 613.217 825.416 609.445 827.521C593.307 836.678 577.468 846.351 561.952 856.526L546.979 856.575C545.635 856.539 546.282 856.717 545.145 855.691C554.583 846.824 614.86 820.929 629.349 814.839Z" fill="#BFE1F1"/>
<path d="M1340.13 807.091C1343.18 806.921 1346.01 806.444 1348.79 807.535C1345.51 810.659 1294.17 848.032 1293.25 848.181C1289.75 848.266 1286.1 848.63 1282.85 847.444C1287.53 841.357 1331.22 811.385 1340.13 807.091Z" fill="#BFE1F1"/>
<path d="M507.173 387.973L507.692 388.411C508.639 391.116 506.261 398.418 505.44 401.677C491.029 408.156 477.106 414.868 462.259 420.297L461.747 419.744C460.78 417.047 462.376 412.595 463.149 409.565C472.54 406.076 498.263 392.842 507.173 387.973Z" fill="#BFE1F1"/>
<path d="M1139.36 809.173C1141.95 809.17 1144.84 809.317 1147.45 809.399L1147.67 810.142C1135.94 820.327 1123.38 829.716 1111.45 839.664C1108.8 841.868 1108.32 842.725 1108.09 845.615C1109.06 847.297 1109.98 848.438 1110 850.345L1101.25 850.532C1096.44 850.892 1089.97 850.792 1085.02 850.851C1098.01 841.593 1128.52 819.314 1139.36 809.173Z" fill="#BFE1F1"/>
<path d="M1161.49 809.01L1176.72 809.031C1163.62 821.331 1151.32 832.646 1137.05 843.614C1131.97 841.735 1132.5 841.139 1131.26 836.539C1141.5 827.539 1151.58 818.361 1161.49 809.01Z" fill="#BFE1F1"/>
<path d="M796.582 813.046C798.72 813.071 799.046 813.16 801.132 813.685C800.891 814.161 800.463 815.104 799.967 815.338C792.205 818.989 785.988 823.038 778.786 827.532C765.014 836.126 752.189 846.274 738.119 854.28C736.342 855.291 731.42 855.16 729.281 855.12L725.188 854.583L725.327 853.688C742.587 840.86 776.986 823.19 796.582 813.046Z" fill="#BFE1F1"/>
<path d="M247.918 603.207L248.734 604.5L248.008 607.522C245.547 611.158 199.379 629.011 189.56 634.45C187.825 632.452 189.693 627.483 190.285 624.936C203.12 617.691 233.326 608.088 247.918 603.207Z" fill="#BFE1F1"/>
<path d="M324.061 488.947L325.448 489.682C310.351 503.078 298.151 504.964 279.71 511.998C265.752 517.419 251.984 523.32 238.433 529.691L237.398 529.67C237.959 526.917 242.088 522.867 244.217 520.364C268.04 512.892 299.725 498.42 324.061 488.947Z" fill="#BFE1F1"/>
<path d="M1072.1 810.093C1062.89 816.72 1034.44 834.38 1029.71 846.35C1029.29 847.433 1030.31 848.345 1031.04 849.279C1044.79 851.128 1078.81 805.434 1088.94 811.063C1073.48 823.05 1051.57 838.219 1038.13 851.432C1033.18 851.951 1021.88 851.65 1016.46 851.657C1032.23 838.342 1046.04 824.567 1060.7 810.115L1072.1 810.093Z" fill="#BFE1F1"/>
<path d="M249.064 743.852C251.519 745.22 252.345 748.911 252.175 751.519C238.533 761.526 227.331 769.367 213.931 779.971L208.555 771.567C223.341 760.112 232.697 753.059 249.064 743.852Z" fill="#BFE1F1"/>
<path d="M237.555 654.918C239.196 657.207 238.736 656.29 238.231 659.956C234.498 666.182 194.919 685.924 185.536 692.174C184.713 688.523 184.208 687.143 184.994 683.467C188.937 680.184 228.814 659.905 237.555 654.918Z" fill="#BFE1F1"/>
<path d="M766.536 813.451C769.536 813.301 770.068 813.265 772.958 814.032L772.642 814.891C759.31 822.8 746.582 831.235 733.737 839.898C728.16 843.659 715.936 854.934 709.978 855.426C706.338 855.361 705.184 855.435 701.641 854.425C703.994 851.706 711.891 846.848 715.149 844.75C725.042 838.292 735.065 832.036 745.211 825.986C751.523 822.298 761.188 817.67 766.536 813.451Z" fill="#BFE1F1"/>
<path d="M499.32 328.584C510.641 324.94 523.61 319.758 534.63 316.638C533.971 318.122 531.874 322.775 530.623 323.524C515.158 332.784 499.071 340.305 483.57 349.66C485.011 346.132 489.44 333.738 492.364 332.101C495.317 331.114 497.02 330.774 499.32 328.584Z" fill="#BFE1F1"/>
<path d="M1364.21 806.87C1365.18 806.72 1366.49 806.837 1367.51 806.873C1366.62 810.275 1327.6 839.15 1321.91 843.602C1316.48 847.858 1313.41 848.203 1306.76 848.173L1303.02 847.652L1303.14 846.626C1323.71 832.685 1343.18 820.208 1364.21 806.87Z" fill="#BFE1F1"/>
<path d="M241.248 626.848L242.127 627.01L242.692 628.311C240.054 631.646 193.285 658.488 186.517 662.511L185.447 662.489C184.439 659.439 185.359 653.663 185.678 650.199C203.619 642.968 223.966 635.176 241.248 626.848Z" fill="#BFE1F1"/>
<path d="M277.492 539.064C277.931 539.05 279.079 539.434 279.57 539.572C277.678 541.985 262.811 547.43 258.55 549.107C242.072 555.595 227.563 562.7 211.991 571.063L211.331 571.279L210.52 570.773C211.541 566.873 215.8 560.273 217.994 556.545C232.829 550.585 260.958 543.809 277.492 539.064Z" fill="#BFE1F1"/>
<path d="M386.461 452.337L387.223 452.374L387.392 453.177C376.023 459.014 359.216 464.474 347.084 469.574C319.644 481.108 290.021 491.758 263.032 504.05L261.484 503.675C264.182 498.089 376.507 452.801 386.461 452.337Z" fill="#BFE1F1"/>
<path d="M510.162 817.199C512.567 817.148 515.438 817.334 517.88 817.425L517.596 818.572C500.379 828.466 484.148 837.399 469.145 850.6C466.763 852.697 463.358 855.937 460.247 856.233C457.945 856.2 452.283 856.474 450.75 855.296C462.828 843.806 495.241 825.611 510.162 817.199Z" fill="#BFE1F1"/>
<path d="M245.663 732.99C247.162 735.394 247.203 735.828 247.622 738.646C245.421 743.26 212.945 764.018 206.571 768.288L202.18 758.905C216.969 750.771 231.472 742.128 245.663 732.99Z" fill="#BFE1F1"/>
<path d="M1587.19 804.008C1589.83 803.942 1591.28 803.626 1593.54 804.932C1583.62 814.509 1558.23 836.016 1546.86 845.028C1542.79 845.132 1541.56 845.081 1537.55 844.413C1539.44 840.22 1580.78 808.727 1587.19 804.008Z" fill="#BFE1F1"/>
<path d="M236.719 700.885C238.343 701.015 237.578 700.902 239.187 702.139L239.232 704.147C234.903 709.843 202.611 730.889 194.209 738.024C193.302 736.822 191.438 730.144 190.863 728.262C204.161 720 223.295 707.31 236.719 700.885Z" fill="#BFE1F1"/>
<path d="M1873.47 798.993L1874.25 799.172C1874.11 800.476 1867.3 804.416 1865.61 805.445C1850.23 814.836 1838.23 826.271 1825.51 838.828C1820.07 839.416 1814.45 839.765 1808.98 840.175L1808.04 839.827L1808.09 838.641C1831.93 820.957 1846.93 812.909 1873.47 798.993Z" fill="#BFE1F1"/>
<path d="M1457.23 805.707L1458.98 805.869C1458.77 808.343 1419.92 841.061 1414.27 846.437L1402.76 847.067L1400.84 846.506C1403.03 841.514 1448.86 811.396 1457.23 805.707Z" fill="#BFE1F1"/>
<path d="M609.911 209.186L611.552 208.85L612.272 209.651C606.441 219.873 572.112 227.456 558.345 231.892L556.684 231.364C558.951 227.417 565.055 222.3 568.596 219.027C582.688 216.299 596.013 212.767 609.911 209.186Z" fill="#BFE1F1"/>
<path d="M237.079 689.094C237.584 689.58 237.865 690.742 238.13 691.495C236.313 697.789 197.63 720.758 190.601 725.098C189.204 722.334 189.191 721.364 188.816 718.4C190.956 713.893 228.621 694.14 237.079 689.094Z" fill="#BFE1F1"/>
<path d="M1045.2 810.354C1048.34 810.116 1050.76 810.256 1053.89 810.395C1053.56 812.073 1008.74 845.883 1002.83 851.959C998.651 852.146 997.749 852.116 993.652 851.314C995.647 849.314 1009.37 839.252 1012.34 836.974C1023.56 828.433 1034.52 819.555 1045.2 810.354Z" fill="#BFE1F1"/>
<path d="M236.375 673.983L237.057 674.227L237.662 676.011C236.382 678.009 194.445 704.469 187.906 708.747C186.234 706.796 184.991 699.855 186.236 699.132C200.089 691.085 222.62 681.021 236.375 673.983Z" fill="#BFE1F1"/>
<path d="M501.003 413.099L502.784 413.541C503.096 430.054 472.364 430.096 461.056 429.878L459.883 429.337L459.469 427.132C462.22 423.367 492.559 416.082 501.003 413.099Z" fill="#BFE1F1"/>
<path d="M592.089 226.206C593.827 225.817 593.699 225.809 595.389 226.374C594.639 229.41 589.51 234.093 587.084 236.646C572.67 238.451 562.175 240.513 548.263 243.79L545.938 243.739C546.157 241.415 550.364 237.363 552.182 235.334C564.578 232.033 579.414 229.066 592.089 226.206Z" fill="#BFE1F1"/>
<path d="M240.935 716.08C241.903 717.159 242.269 719.621 242.63 721.139C242.024 722.25 204.484 748.593 199.576 752.217C198.024 749.864 196.969 748.786 197.329 745.945C204.673 738.334 231.138 721.569 240.935 716.08Z" fill="#BFE1F1"/>
<path d="M1312.94 807.118C1316.32 807.033 1317 806.985 1320.34 807.846C1315.36 812.976 1304.22 820.797 1298.14 825.445C1288.53 832.719 1279.18 840.338 1270.13 848.287L1266.15 848.453L1265.42 847.391C1273.53 835.58 1300.41 816.712 1312.94 807.118Z" fill="#BFE1F1"/>
<path d="M598.195 815.939C598.898 815.906 601.395 816.156 602.24 816.223L601.782 817.169C578.37 828.308 556.874 842.544 534.658 855.737C533.25 856.573 530.87 856.736 529.233 856.728L522.681 856.354L522.141 855.419C545.398 842.16 574.061 828.317 598.195 815.939Z" fill="#BFE1F1"/>
<path d="M866.838 815.13L867.068 815.277C866.455 818.091 853.768 826.96 850.975 828.892C839.912 836.547 831.581 843.391 823.28 854.01L806.369 854.088L805.934 853.783C806.702 851.31 860.385 819.153 866.838 815.13Z" fill="#BFE1F1"/>
<path d="M985.846 811.021C989.63 810.907 991.869 810.639 995.509 811.741C978.667 823.983 963.296 836.222 947.046 849.2C944.969 851.52 943.036 853.214 939.875 852.014C942.449 844.531 977.455 818.021 985.846 811.021Z" fill="#BFE1F1"/>
<path d="M689.307 819.665C670.593 832.361 654.919 841.558 636.908 855.834C632.716 855.844 626.457 856.06 622.438 855.799C628.558 850.413 643.602 841.898 651.03 837.607C662.862 831.632 676.965 824.435 689.307 819.665Z" fill="#BFE1F1"/>
<path d="M482.717 354.873L483.474 354.565C494.934 349.838 514.027 337.668 525.334 335.68L525.987 336.478C522.617 340.898 495.052 356.93 487.092 362.561C484.248 364.503 478.948 367.226 475.777 368.983C477.285 364.382 479.09 357.924 482.717 354.873Z" fill="#BFE1F1"/>
<path d="M482.717 354.873C483.276 358.671 482.812 361.154 487.092 362.561C484.248 364.503 478.948 367.226 475.777 368.983C477.285 364.382 479.09 357.924 482.717 354.873Z" fill="#BFE1F1"/>
<path d="M1291.8 806.907L1292.46 808.167C1290.14 810.884 1285.39 814.307 1282.57 816.741C1269.28 828.246 1259.84 833.26 1251.3 848.8L1238.34 848.809L1237.63 848.202C1238.45 844.962 1285.94 808.664 1291.8 806.907Z" fill="#BFE1F1"/>
<path d="M264.059 770.844C266.555 771.998 268.181 774.539 268.623 777.169C254.426 784.032 243.35 789.156 230.345 798.257C228.191 796.992 225.777 794.729 224.902 792.314C230.325 788.145 255.659 775.573 264.059 770.844Z" fill="#BFE1F1"/>
<path d="M253.88 586.087L254.643 587.678C251.414 594.132 238.904 597.118 231.908 599.962C219.271 605.232 206.671 610.586 194.106 616.025L193.524 615.559C193.154 614.255 192.822 613.85 193.377 612.603C196.055 606.579 245.03 589.647 253.88 586.087Z" fill="#BFE1F1"/>
<path d="M238.726 640.902C239.587 641.508 239.451 641.619 240.047 642.643C237.886 646.213 192.19 672.749 185.153 676.947C183.675 675.18 184.238 672.722 184.704 670.686C188.873 665.488 229.776 645.698 238.726 640.902Z" fill="#BFE1F1"/>
<path d="M576.751 244.396C579.022 244.092 578.054 243.826 579.806 244.944C576.559 251.467 543.846 258.23 535.248 260.42L532.836 260.482C533.611 257.2 538.035 252.438 540.358 249.565L576.751 244.396Z" fill="#BFE1F1"/>
<path d="M1101.36 809.774C1104.02 809.697 1105.8 809.978 1108.39 810.316C1107.81 811.971 1076.36 836.935 1073.85 841.631C1072.98 843.267 1066.33 850.186 1064.13 850.967C1060.76 851.182 1058.03 851.65 1054.93 850.346C1056.53 848.701 1058.3 847.292 1060.07 845.85C1074.26 834.331 1088.56 822.858 1101.36 809.774Z" fill="#BFE1F1"/>
<path d="M1006.43 810.911L1019.82 810.843C1002.2 822.284 982.212 834.718 965.593 847.234C964.834 849.076 964.36 850.035 963.371 851.764C960.575 852.069 961.352 852.382 959.172 851.273C964.482 844.122 998.344 817.012 1006.43 810.911Z" fill="#BFE1F1"/>
<path d="M629.031 191.32L632.795 191.04L632.707 192.095C626.494 197.99 592.38 207.355 581.217 211.225L578.719 212.075L577.848 211.566C589.131 197.417 612.245 194.304 629.031 191.32Z" fill="#BFE1F1"/>
<path d="M395.878 818.909L397.312 819.236L397.362 820.138C379.761 829.924 364.073 841.94 346.527 851.59C345.215 852.312 340.808 851.73 339.22 851.508L336.906 850.532C339.807 845.587 386.882 823.314 395.878 818.909Z" fill="#BFE1F1"/>
<path d="M1618.29 802.989C1618.95 803.259 1618.92 803.516 1619.48 804.302C1611.1 810.662 1603.01 815.881 1594.9 823.021C1587.36 829.667 1579.35 837.396 1571.76 844.078C1570.95 844.791 1564.66 844.596 1563 844.569C1561.96 844.537 1562.48 844.683 1561.56 843.74C1571.73 836.231 1609.89 803.913 1618.29 802.989Z" fill="#BFE1F1"/>
<path d="M1794.91 813.275L1795.11 814.077C1782.47 822.94 1772.83 828.468 1764.56 841.801L1746.2 841.83L1745.51 841.347L1745.87 840.033C1762.62 830.078 1777.29 821.588 1794.91 813.275Z" fill="#BFE1F1"/>
<path d="M550.866 281.184L553.301 281.152L553.314 282.567C548.61 290.454 519.62 297.961 509.228 301.305L507.613 301.593C508.076 290.922 541.256 283.58 550.866 281.184Z" fill="#BFE1F1"/>
<path d="M1247.89 807.703L1250.22 808.463C1248.86 811.634 1212 842.972 1206.39 848.59C1205.51 849.474 1203.04 850.374 1201.69 850.724L1198.76 848.618C1199.58 844.522 1241.28 812.837 1247.89 807.703Z" fill="#BFE1F1"/>
<path d="M1480.07 804.622C1481.43 804.94 1481.43 805.094 1482.54 805.986C1476.25 813.687 1449.24 836.05 1440.92 845.615C1440.42 846.186 1435.23 846.774 1433.91 846.913L1431.96 845.946L1431.71 844.943C1446.96 831.223 1464.32 818.326 1480.07 804.622Z" fill="#BFE1F1"/>
<path d="M1375.36 846.964C1390.5 835.646 1406.15 825.038 1422.26 815.172L1422.49 818.554C1411.48 826.505 1397.84 838.204 1387.18 846.953L1375.36 846.964Z" fill="#BFE1F1"/>
<path d="M367.548 818.833L369.41 819.23L369.193 820.143C361.745 823.829 326.856 848.848 324.14 848.933C322.776 848.244 320.273 847.514 318.75 847.016L318.246 845.402C327.602 837.754 356.196 823.867 367.548 818.833Z" fill="#BFE1F1"/>
<path d="M1269.29 807.615C1271.73 807.668 1272.09 807.66 1274.27 808.724C1260.79 820.801 1242.94 838.864 1229.92 849.42C1226.55 849.266 1225.9 849.11 1222.69 848.224C1223.99 846.763 1231.81 840.713 1233.86 838.986C1245.25 829.397 1259.78 818.955 1269.29 807.615Z" fill="#BFE1F1"/>
<path d="M297.132 801.191C299.652 802.327 300.08 802.348 301.739 804.436C292.111 810.886 277.26 818.914 266.675 825.467L260.494 821.771L260.422 820.404C271.314 813.431 289.097 807.964 297.132 801.191Z" fill="#BFE1F1"/>
<path d="M565.544 261.254L566.407 261.356L566.678 262.61C563.223 266.8 530.255 275.682 522.745 277.94L521.484 277.683C521.699 274.849 524.129 272.046 525.873 269.379L565.544 261.254Z" fill="#BFE1F1"/>
<path d="M822.935 829L823.627 829.989C813.338 837.988 803.096 846.047 792.901 854.165C788.267 854.215 783.03 854.516 778.353 854.688L777.555 854.091C779.317 851.272 817.023 832.119 822.935 829Z" fill="#BFE1F1"/>
<path d="M1387.37 805.678C1389.46 806.225 1388.68 805.671 1389.97 807.106C1386.89 810.112 1375.47 818.182 1371.55 821.077L1334.1 848.647C1332.41 848.196 1331.54 848.095 1330.1 847.045C1332.99 844.176 1344.73 836.132 1348.83 833.2L1387.37 805.678Z" fill="#BFE1F1"/>
<path d="M708.977 833.114L709.553 833.902C704.46 838.104 688.049 850.841 684.842 855.551L669.417 855.531L668.98 855.303L669.047 854.057C680.444 846.841 696.786 839.024 708.977 833.114Z" fill="#BFE1F1"/>
<path d="M469.852 826.994L470.619 827.709C466.442 832.22 443.567 847.383 437.218 851.348C436.625 852.816 436.129 854.042 435.732 855.026C433.704 856.453 427.362 855.873 424.457 855.817L423.664 855.328C427.429 849.736 462.239 831.006 469.852 826.994Z" fill="#BFE1F1"/>
<path d="M257.573 758.782L258.65 761.481C257.269 765.438 225.791 784.855 219.988 788.622C218.541 786.015 218.062 786.18 218.371 783.588C226.941 776.765 246.471 766.392 257.573 758.782Z" fill="#BFE1F1"/>
<path d="M328.453 813.803L330.725 814.553L330.229 816.12C326.441 818.477 322.348 820.841 318.611 823.3C313.783 826.476 300.65 838.112 296.331 839.818C294.302 838.885 292.617 837.87 290.695 836.755C292.426 832.263 322.512 816.905 328.453 813.803Z" fill="#BFE1F1"/>
<path d="M309.522 809.857L310.948 810.61C301.805 816.864 293.555 823.775 284.795 830.509C281.71 832.88 281.886 832.751 278.883 832.273C276.448 830.925 275.111 830.404 273.27 828.28C278.736 823.568 302.019 813.31 309.522 809.857Z" fill="#BFE1F1"/>
<path d="M691.422 151.082L692.204 151.18L691.838 152.019C670.891 164.967 670.653 165.593 647.222 170.062L645.676 169.808C647.532 166.475 685.006 153.23 691.422 151.082Z" fill="#BFE1F1"/>
<path d="M281.166 794.117L287.581 795.302C284.662 797.358 276.088 800.516 272.284 802.552C264.913 806.497 258.726 810.813 251.854 815.562C249.26 814.798 248.894 814.705 247.289 812.558C248.94 808.503 275.154 797.036 281.166 794.117Z" fill="#BFE1F1"/>
<path d="M601.332 855.994C615.413 849.358 629.54 842.819 643.713 836.38C638.535 841.693 622.955 851.159 621.035 855.163C616.615 856.536 606.486 856.047 601.332 855.994Z" fill="#BFE1F1"/>
<path d="M516.684 357.079L517.483 358.118C517.239 358.68 516.946 359.355 516.604 360.143C502.781 366.479 486.104 376.069 472.48 382.148L471.723 381.382L472.304 378.441C473.443 376.764 511.458 359.549 516.684 357.079Z" fill="#BFE1F1"/>
<path d="M514.708 832.119L515.163 832.361C514.8 833.409 487.425 853.595 483.588 856.474L473.418 856.43L472.473 856.336C473.333 854.954 510.691 834.38 514.708 832.119Z" fill="#BFE1F1"/>
<path d="M492.363 332.101C493.657 322.246 512.928 319.116 521.217 314.779C523.509 313.581 536.096 308.466 537.824 308.236L537.728 309.684C526.89 315.764 509.994 321.222 500.079 328.051L499.319 328.584C497.019 330.774 495.316 331.114 492.363 332.101Z" fill="#BFE1F1"/>
<path d="M1028.52 809.444L1031.32 810.88L1031.27 812.04C1019.25 821.289 1006.07 830.288 993.615 839.057L992.286 839.863L991.785 839.103C1000.24 831.07 1018.89 816.216 1028.52 809.444Z" fill="#BFE1F1"/>
<path d="M647.744 176.354C649.009 176.094 651.042 176.146 652.413 176.125L652.35 177.22C646.183 181.563 626.737 184.19 618.216 186.063L614.402 186.631L614.559 185.474L615.639 185.367L616.176 184.444C624.09 180.192 639.062 177.702 647.744 176.354Z" fill="#BFE1F1"/>
<path d="M493.013 383.003L493.981 383.076L493.851 384.101C485.999 389.592 475.978 395.218 467.626 400.181C466.494 400.048 467.022 400.135 465.91 399.067L466.949 394.878C470.321 390.08 486.285 385.599 493.013 383.003Z" fill="#BFE1F1"/>
<path d="M533.654 298.047L535.134 298.188C535.395 297.885 505.303 312.753 502.407 314.287L500.877 314.728C500.252 312.396 502.49 309.435 503.87 306.801L533.654 298.047Z" fill="#BFE1F1"/>
<path d="M1122.7 809.158C1125.2 809.354 1125.84 808.963 1127.49 810.356C1124.71 814.654 1110.74 822.263 1105.45 825.42L1103.21 826.361C1103.49 822.079 1116.89 809.46 1122.7 809.158Z" fill="#BFE1F1"/>
<path d="M1131.26 836.539C1132.5 841.139 1131.97 841.735 1137.05 843.614L1127.71 850.141L1114.87 850.263C1120.34 845.937 1125.91 841.067 1131.26 836.539Z" fill="#BFE1F1"/>
<path d="M1916.84 804.077L1917.54 804.876C1908.18 813.404 1895.08 821.038 1883.51 826.074L1882.84 825.67C1885.09 822.229 1911.63 807.086 1916.84 804.077Z" fill="#BFE1F1"/>
<path d="M1538.05 830.118L1538.43 831.258C1537.54 832.281 1536.64 833.299 1535.74 834.31C1529.03 841.801 1527.48 844.88 1518.36 845.382L1517.91 844.941C1518.33 842.792 1534.81 832.33 1538.05 830.118Z" fill="#BFE1F1"/>
<path d="M257.067 794.852L258.111 795.157C257.121 797.05 243.29 805.695 240.456 807.556L238.906 806.326L239.045 804.763C243.87 801.073 251.447 797.634 257.067 794.852Z" fill="#BFE1F1"/>
<path d="M535.602 281.339L536.244 281.753C529.55 284.215 522.835 286.617 516.099 288.96L515.204 288.87L514.52 287.77C517.433 284.701 531.039 282.315 535.602 281.339Z" fill="#BFE1F1"/>
<path d="M1422.26 815.172C1427.24 811.834 1431.09 808.975 1436.69 806.733L1437.28 807.09C1432.52 811.409 1427.68 814.786 1422.49 818.554L1422.26 815.172Z" fill="#BFE1F1"/>
<path d="M320.504 833.075L321.163 833.107C320.499 834.937 310.833 841.831 308.529 843.598L306.742 842.941L306.744 841.84C309.939 838.525 316.301 835.408 320.504 833.075Z" fill="#BFE1F1"/>
<path d="M319.377 466.866L320.489 467.355C315.4 470.718 305.192 475.051 299.298 477.75L298.59 477.827L298.703 476.98C305.094 473.132 312.536 469.962 319.377 466.866Z" fill="#BFE1F1"/>
<path d="M196.578 638.071L198.443 638.048C197.084 640.042 191.75 642.375 189.289 643.636L187.448 643.912L187.219 642.234C190.285 639.285 192.39 639.096 196.578 638.071Z" fill="#BFE1F1"/>
</svg>
