<svg width="68" height="54" viewBox="0 0 68 54" fill="none" xmlns="http://www.w3.org/2000/svg">
<path d="M6.6 51.8C6.8 51.9 12.9 54 33 54C53.1 54 60.1 51.8 60.4 51.7C64.2 50.4 67.2 46.3 67.2 42.3V11.7C67.2 7.7 64.3 3.5 60.6 2.1C60 1.9 54.4 0 33.6 0C12.8 0 7.2 1.9 6.6 2.1C2.9 3.5 0 7.7 0 11.7V42.3C0 46.3 2.9 50.5 6.6 51.8ZM4 11.7C4 9.4 5.9 6.7 8 5.9C8.1 5.9 13.5 4 33.6 4C53.7 4 59.2 5.8 59.2 5.8C61.3 6.6 63.2 9.3 63.2 11.6V42.3C63.2 44.6 61.3 47.2 59.2 47.9C59.1 47.9 52.4 50 33.1 50C13.9 50 8.1 48.1 8 48.1C5.9 47.3 4 44.6 4 42.4V11.7ZM28.8 39.1C29.1 39.2 29.4 39.3 29.7 39.3C30.2 39.3 30.6 39.1 31 38.8L43.4 28.5C43.9 28.1 44.1 27.6 44.1 27C44.1 26.4 43.8 25.8 43.4 25.5L31 15.2C30.4 14.7 29.6 14.6 28.9 14.9C28.2 15.2 27.8 15.9 27.8 16.7V37.3C27.7 38 28.1 38.7 28.8 39.1ZM31.7 21L38.9 27L31.7 33V21Z" fill="black"/>
</svg>
