<svg width="88" height="100" viewBox="0 0 88 100" fill="none" xmlns="http://www.w3.org/2000/svg">
<path d="M87.0122 25.7091C87.0122 25.6153 86.9926 25.5177 86.9692 25.4356C86.9692 25.4044 86.9575 25.3731 86.9497 25.3419C86.9184 25.2247 86.8755 25.1192 86.813 25.006C86.7505 24.9005 86.6762 24.8067 86.5903 24.7208C86.5708 24.7013 86.5473 24.6778 86.5161 24.6583C86.4418 24.5958 86.3676 24.5333 86.2934 24.4903C86.2739 24.4786 86.2622 24.4708 86.2504 24.4591L44.2854 0.20508C43.8128 -0.06836 43.2229 -0.06836 42.7385 0.20508L0.76954 24.4241C0.76954 24.4241 0.73829 24.4553 0.718759 24.467C0.64454 24.5178 0.570319 24.5725 0.496099 24.635C0.476568 24.6545 0.445318 24.678 0.42188 24.7092C0.335943 24.7952 0.26563 24.8889 0.19922 24.9944C0.13672 25.0999 0.09375 25.2171 0.0625 25.3303C0.0625 25.3616 0.0507807 25.3928 0.0429688 25.4241C0.0234377 25.5178 0.011719 25.6155 0 25.6975V25.76V74.213C0 74.7716 0.29297 75.2755 0.76953 75.5489L42.7265 99.7789C42.7265 99.7789 42.7695 99.7906 42.7773 99.7985C42.8633 99.8414 42.9453 99.8844 43.039 99.9039C43.0703 99.9039 43.1015 99.9235 43.1328 99.9352C43.25 99.9664 43.375 99.986 43.5 99.986C43.625 99.986 43.7422 99.9664 43.8672 99.9352C43.8984 99.9352 43.9297 99.9156 43.9609 99.9039C44.0547 99.8727 44.1406 99.8414 44.2226 99.7985C44.2422 99.7985 44.2656 99.7867 44.2734 99.7789L86.2304 75.5489C86.7031 75.2755 86.9999 74.7599 86.9999 74.213L87.0117 25.764V25.7015L87.0122 25.7091ZM43.5082 48.2051L25.6252 37.8771L64.4842 15.4361L82.3672 25.7641L43.4922 48.2051H43.5082ZM43.5082 3.33009L61.3912 13.6581L22.5162 36.0991L4.64517 25.7631L43.5082 3.33009ZM3.09817 28.4471L21.7702 39.2241L41.9612 50.8881V95.7711L3.09817 73.3301V28.4471ZM45.0552 95.7711V50.8881L83.9302 28.4471V73.3301L45.0552 95.7711ZM36.856 87.2984C36.5708 87.7945 36.0474 88.0679 35.5201 88.0679C35.2583 88.0679 34.9927 88.0054 34.7505 87.857L17.3095 77.783C16.5713 77.3533 16.3213 76.4158 16.7392 75.6658C17.1611 74.9197 18.1064 74.6775 18.8564 75.0955L36.2974 85.1695C37.0357 85.5992 37.2857 86.5367 36.8677 87.2867L36.856 87.2984ZM12.907 73.8684C12.6218 74.3645 12.0984 74.6379 11.5711 74.6379C11.3093 74.6379 11.0437 74.5754 10.8015 74.427L7.89534 72.7551C7.15706 72.3254 6.90706 71.3879 7.32503 70.6379C7.75472 69.8996 8.69223 69.6496 9.44223 70.0676L12.3484 71.7395C13.0867 72.1692 13.3367 73.1067 12.9187 73.8567L12.907 73.8684Z" fill="black"/>
</svg>
